<svg xmlns="http://www.w3.org/2000/svg" xmlns:xlink="http://www.w3.org/1999/xlink" width="500" zoomAndPan="magnify" viewBox="0 0 375 374.999991" height="500" preserveAspectRatio="xMidYMid meet" version="1.0"><defs><g/></defs><g fill="#ffffff" fill-opacity="1"><g transform="translate(103.568525, 194.890886)"><g><path d="M 0.5 3.34375 C 0.5 4.140625 1.046875 4.191406 1.546875 4.292969 L 1.894531 4.292969 C 1.894531 6.089844 1.847656 12.078125 2.144531 13.875 C 2.445312 16.167969 2.445312 18.765625 2.792969 20.609375 C 2.945312 21.410156 3.09375 22.007812 3.992188 22.007812 C 5.140625 22.007812 4.242188 18.765625 4.140625 16.617188 C 4.042969 15.621094 4.191406 14.523438 4.042969 13.523438 C 3.84375 11.925781 4.042969 6.886719 4.140625 4.941406 C 4.140625 4.140625 4.292969 4.042969 4.292969 3.195312 C 6.886719 3.242188 10.628906 6.835938 12.527344 8.683594 L 17.417969 13.125 C 18.214844 13.824219 24.703125 18.964844 25.601562 18.964844 C 26.148438 18.964844 26.550781 18.363281 25.949219 17.667969 L 21.210938 13.921875 C 20.710938 13.523438 20.410156 13.226562 19.910156 12.824219 C 19.464844 12.476562 18.964844 12.078125 18.566406 11.679688 L 12.328125 5.890625 C 10.28125 3.941406 7.4375 1.445312 4.441406 1.445312 C 4.441406 -1.546875 4.839844 -1.796875 5.890625 -3.941406 C 7.984375 -8.132812 10.332031 -12.226562 13.324219 -15.871094 L 16.269531 -19.261719 C 17.367188 -20.511719 18.664062 -21.507812 19.613281 -22.457031 L 21.257812 -23.953125 C 21.910156 -24.503906 22.457031 -24.953125 23.105469 -25.402344 C 23.355469 -25.601562 23.703125 -25.949219 24.003906 -26.101562 C 24.652344 -26.351562 24.703125 -26.050781 25.25 -26.449219 C 25.5 -26.648438 26.449219 -28.394531 24.652344 -28.394531 C 22.605469 -28.394531 14.871094 -21.058594 13.625 -19.414062 C 10.578125 -15.671875 9.929688 -15.171875 7.285156 -10.730469 C 6.988281 -10.230469 6.636719 -9.679688 6.339844 -9.132812 C 5.9375 -8.382812 5.988281 -8.285156 5.390625 -7.585938 C 5.390625 -8.882812 6.1875 -13.226562 6.4375 -14.722656 C 7.4375 -20.3125 8.832031 -26.148438 10.28125 -31.589844 C 10.480469 -32.289062 11.878906 -36.179688 10.480469 -36.179688 C 9.480469 -36.179688 9.382812 -35.683594 8.933594 -34.382812 L 6.785156 -27.347656 C 5.140625 -21.660156 3.492188 -12.675781 2.84375 -6.636719 L 2.246094 -1.046875 C 1.945312 0.398438 0.5 2.445312 0.5 3.34375 Z M 0.5 3.34375 "/></g></g></g><g fill="#ffffff" fill-opacity="1"><g transform="translate(122.9291, 194.890886)"><g><path d="M 0 -5.039062 C 0 -3.242188 0.148438 -2.394531 1.996094 -2.394531 C 3.445312 -2.394531 4.992188 -7.085938 5.9375 -7.734375 C 5.9375 -5.589844 7.535156 -2.996094 10.03125 -2.996094 C 10.878906 -2.996094 11.828125 -3.292969 12.824219 -3.992188 L 14.324219 -5.191406 C 16.867188 -7.636719 16.570312 -8.882812 15.820312 -8.882812 C 15.519531 -8.882812 15.171875 -8.734375 14.921875 -8.382812 C 14.222656 -7.636719 14.074219 -7.1875 13.125 -6.339844 C 12.027344 -5.238281 10.980469 -4.640625 10.03125 -4.640625 C 8.984375 -4.640625 8.085938 -5.441406 7.683594 -7.234375 C 7.234375 -9.132812 8.085938 -11.378906 6.339844 -11.378906 C 5.6875 -11.378906 3.644531 -7.136719 2.644531 -5.589844 L 2.246094 -4.992188 C 1.996094 -4.691406 2.144531 -4.890625 1.996094 -4.742188 C 1.996094 -6.386719 2.695312 -8.285156 3.34375 -9.332031 C 4.789062 -11.828125 5.789062 -12.527344 6.539062 -12.527344 C 7.484375 -12.527344 8.085938 -11.378906 8.785156 -11.378906 C 10.082031 -11.378906 8.785156 -14.222656 6.4375 -14.222656 C 2.945312 -14.222656 0 -7.886719 0 -5.039062 Z M 0 -5.039062 "/></g></g></g><g fill="#ffffff" fill-opacity="1"><g transform="translate(137.399627, 194.890886)"><g><path d="M 0.699219 -0.199219 C 2.246094 -0.199219 1.648438 -1.894531 1.945312 -3.195312 C 2.144531 -4.390625 2.59375 -5.390625 3.09375 -6.238281 C 3.894531 -7.535156 4.140625 -7.535156 6.039062 -7.535156 C 6.585938 -7.535156 7.335938 -7.484375 7.984375 -7.484375 C 8.984375 -7.484375 9.78125 -7.585938 9.78125 -8.285156 C 9.78125 -8.933594 8.234375 -9.03125 6.785156 -9.03125 C 5.9375 -9.03125 5.089844 -8.984375 4.640625 -8.984375 C 3.09375 -8.984375 2.792969 -8.035156 2.046875 -7.535156 C 2.046875 -8.183594 2.144531 -8.132812 2.144531 -8.832031 C 2.144531 -9.332031 2.144531 -9.929688 2.195312 -10.429688 C 2.34375 -11.828125 2.59375 -12.777344 1.246094 -12.777344 C 0.148438 -12.777344 0.0507812 -7.585938 0.0507812 -6.6875 C 0.101562 -5.441406 0.0507812 -4.191406 0.101562 -2.996094 C 0.101562 -2.644531 -0.300781 -0.199219 0.699219 -0.199219 Z M 0.699219 -0.199219 "/></g></g></g><g fill="#ffffff" fill-opacity="1"><g transform="translate(145.533068, 194.890886)"><g><path d="M -14.023438 -22.257812 C -14.023438 -21.558594 -13.523438 -21.410156 -12.976562 -21.410156 C -12.675781 -21.410156 -12.375 -21.460938 -12.125 -21.507812 C -11.679688 -22.457031 -12.175781 -22.257812 -10.929688 -22.757812 C -10.332031 -23.007812 -9.882812 -23.355469 -9.28125 -23.605469 C -6.1875 -24.804688 -3.34375 -25.652344 -0.0507812 -26.449219 C 0.449219 -26.597656 1.597656 -26.800781 1.894531 -26.898438 L 1.445312 -22.257812 C 1.398438 -21.609375 1.347656 -20.511719 1.246094 -19.863281 C 1 -18.414062 0.949219 -11.679688 0.949219 -9.78125 L 0.796875 -7.4375 C 0.796875 -3.792969 0.648438 2.144531 0.949219 5.738281 C 0.949219 6.9375 1 8.734375 2.296875 8.734375 C 3.59375 8.734375 2.84375 5.289062 2.84375 4.140625 C 2.746094 1.945312 2.792969 -8.035156 2.945312 -9.53125 C 3.042969 -10.578125 2.945312 -12.824219 2.945312 -14.273438 C 2.945312 -14.972656 3.09375 -14.972656 3.09375 -15.621094 C 3.09375 -16.121094 3.042969 -16.71875 3.09375 -17.167969 L 4.09375 -27.398438 C 5.289062 -27.648438 12.875 -29.09375 15.621094 -29.09375 C 15.96875 -29.09375 16.21875 -29.09375 16.417969 -29.042969 C 17.019531 -28.894531 16.867188 -29.09375 17.019531 -28.59375 C 18.914062 -28.59375 18.316406 -30.589844 15.96875 -30.589844 C 12.925781 -30.589844 9.980469 -30.09375 7.085938 -29.542969 C 6.339844 -29.445312 5.289062 -29.144531 4.492188 -29.144531 C 4.492188 -30.742188 5.488281 -29.445312 5.488281 -30.742188 C 5.488281 -31.039062 5.441406 -31.242188 5.441406 -31.390625 C 5.390625 -31.890625 5.488281 -31.488281 5.488281 -32.089844 C 5.488281 -32.886719 5.089844 -33.535156 4.542969 -33.535156 C 3.894531 -33.535156 3.09375 -32.636719 2.59375 -29.941406 C 2.246094 -28.246094 2.394531 -28.695312 0.300781 -28.144531 C -2.546875 -27.347656 -14.023438 -24.503906 -14.023438 -22.257812 Z M -14.023438 -22.257812 "/></g></g></g><g fill="#ffffff" fill-opacity="1"><g transform="translate(151.321283, 194.890886)"><g><path d="M 4.140625 0.199219 C 6.488281 0.199219 8.382812 -1.996094 9.582031 -3.242188 C 10.378906 -4.042969 13.375 -7.386719 13.375 -8.335938 C 13.375 -8.785156 13.226562 -8.933594 13.023438 -8.933594 C 12.078125 -8.933594 9.433594 -5.390625 9.234375 -5.140625 C 8.484375 -4.191406 5.890625 -1.546875 4.292969 -1.546875 C 2.945312 -1.546875 2.394531 -4.492188 2.394531 -5.988281 C 2.394531 -11.078125 4.390625 -13.324219 2.097656 -13.324219 C 1.097656 -13.324219 0.597656 -11.078125 0.449219 -10.03125 C -0.101562 -7.484375 0 -4.042969 1.199219 -1.796875 C 1.746094 -0.847656 2.792969 0.199219 4.140625 0.199219 Z M 2.546875 -19.613281 C 2.546875 -18.515625 3.195312 -18.015625 3.894531 -18.015625 C 4.890625 -18.015625 5.9375 -19.113281 4.992188 -20.960938 C 4.691406 -21.507812 4.339844 -21.707031 3.992188 -21.707031 C 3.242188 -21.707031 2.546875 -20.761719 2.546875 -19.613281 Z M 2.546875 -19.613281 "/></g></g></g><g fill="#ffffff" fill-opacity="1"><g transform="translate(162.698118, 194.890886)"><g><path d="M 0 -3.792969 L 0 0.449219 C 0 1.398438 0.101562 1.546875 0.148438 2.296875 C 0.25 3.542969 -0.199219 5.238281 1.148438 5.238281 C 2.144531 5.238281 2.445312 2.394531 3.195312 0.199219 L 5.390625 -4.589844 C 5.9375 -2.296875 6.289062 0 7.035156 2.195312 C 7.4375 3.394531 7.984375 5.6875 9.234375 6.289062 C 9.382812 6.339844 9.53125 6.386719 9.632812 6.386719 C 10.03125 6.386719 10.28125 6.039062 10.53125 5.738281 C 10.378906 5.089844 9.929688 4.640625 9.433594 3.394531 C 8.683594 1.398438 7.636719 -3.042969 7.4375 -5.140625 C 7.136719 -7.984375 7.085938 -7.933594 7.984375 -9.433594 C 8.234375 -9.832031 8.484375 -10.179688 8.734375 -10.578125 C 10.179688 -13.023438 12.175781 -14.671875 10.03125 -14.671875 C 8.382812 -14.671875 2.246094 -1.796875 1.945312 -1.496094 C 1.945312 -8.582031 2.84375 -18.414062 4.191406 -25.800781 C 4.589844 -28.046875 5.539062 -29.792969 3.59375 -29.792969 C 1.847656 -29.792969 0.796875 -19.0625 0.648438 -17.914062 C 0.25 -13.472656 0 -8.582031 0 -3.792969 Z M 0 -3.792969 "/></g></g></g><g fill="#ffffff" fill-opacity="1"><g transform="translate(174.025055, 194.890886)"><g/></g></g><g fill="#ffffff" fill-opacity="1"><g transform="translate(186.948742, 194.890886)"><g><path d="M 18.363281 1.246094 C 18.363281 0.199219 18.117188 -0.550781 18.117188 -2.546875 C 18.117188 -6.039062 19.3125 -15.222656 18.214844 -17.117188 C 18.015625 -17.566406 17.566406 -17.816406 17.066406 -17.816406 C 16.71875 -17.816406 16.367188 -17.714844 16.070312 -17.515625 C 15.019531 -16.816406 14.074219 -14.871094 13.425781 -13.625 C 9.882812 -6.4375 7.933594 3.09375 5.6875 11.277344 L 4.492188 14.871094 C 4.242188 15.421875 4.242188 15.671875 3.691406 15.820312 L 3.195312 13.375 C 1.847656 5.289062 2.996094 -8.035156 4.042969 -15.320312 C 4.941406 -21.359375 5.589844 -24.902344 7.136719 -30.589844 C 7.4375 -31.589844 8.234375 -33.4375 6.835938 -33.4375 C 4.839844 -33.4375 2.34375 -18.164062 2.195312 -17.167969 C 1.746094 -14.074219 1.347656 -11.027344 1 -7.886719 L 0.5 2.195312 C 0.5 5.441406 0.796875 17.765625 3.691406 17.765625 C 4.691406 17.765625 4.992188 17.265625 5.441406 16.46875 C 6.339844 14.273438 7.085938 12.125 7.636719 9.832031 C 8.484375 6.886719 9.234375 3.59375 10.03125 0.449219 C 11.078125 -3.84375 13.375 -11.726562 16.121094 -15.421875 C 16.46875 -15.871094 16.417969 -16.019531 17.019531 -16.167969 C 17.019531 -15.421875 17.117188 -14.972656 17.117188 -14.570312 L 16.367188 -4.589844 C 16.21875 -2.394531 16.21875 3.144531 18.363281 3.144531 C 21.011719 3.144531 23.90625 -8.132812 24.753906 -10.378906 C 26.101562 -13.675781 26.847656 -16.46875 28.496094 -20.113281 C 30.09375 -23.703125 30.992188 -25.75 33.039062 -29.09375 C 33.785156 -30.390625 34.882812 -32.089844 36.179688 -32.738281 C 37.328125 -30.242188 34.933594 -17.867188 34.484375 -15.070312 C 33.386719 -8.535156 32.9375 -4.140625 32.140625 2.144531 L 30.640625 24.402344 C 30.691406 25.003906 30.691406 25.300781 30.742188 26.148438 C 30.792969 26.949219 31.242188 27.449219 31.640625 27.449219 C 31.988281 27.449219 32.339844 27.046875 32.339844 26.148438 C 32.339844 24.304688 32.289062 22.007812 32.4375 20.210938 C 33.238281 13.023438 33.585938 6.089844 34.683594 -1.296875 L 37.777344 -21.910156 C 38.027344 -23.605469 40.074219 -34.535156 36.179688 -34.535156 C 32.6875 -34.535156 26.949219 -20.660156 25.902344 -18.015625 C 23.90625 -12.925781 22.507812 -8.234375 20.609375 -3.292969 C 20.210938 -2.046875 19.261719 0.699219 18.363281 1.246094 Z M 18.363281 1.246094 "/></g></g></g><g fill="#ffffff" fill-opacity="1"><g transform="translate(225.121, 194.890886)"><g><path d="M 2.296875 -9.03125 C 2.644531 -10.28125 4.292969 -12.226562 5.640625 -12.476562 C 5.488281 -10.878906 3.542969 -9.679688 2.296875 -9.03125 Z M 0.0507812 -7.835938 C 0.0507812 -6.4375 0 -5.191406 1.199219 -3.992188 C 2.046875 -3.144531 3.042969 -2.792969 4.09375 -2.792969 C 7.136719 -2.792969 10.578125 -5.839844 12.425781 -7.683594 C 12.875 -8.234375 12.875 -8.285156 12.726562 -9.03125 C 11.230469 -9.03125 12.027344 -8.832031 9.980469 -7.234375 C 9.632812 -6.988281 9.480469 -6.785156 9.082031 -6.488281 C 8.085938 -5.738281 5.988281 -4.292969 4.242188 -4.292969 C 3.644531 -4.292969 3.042969 -4.492188 2.59375 -4.941406 C 1.746094 -5.789062 1.847656 -6.585938 1.847656 -7.636719 C 3.394531 -7.734375 5.191406 -9.183594 5.988281 -10.082031 C 7.535156 -12.027344 7.535156 -14.023438 5.339844 -14.023438 C 2.945312 -14.023438 0.0507812 -10.332031 0.0507812 -7.835938 Z M 0.0507812 -7.835938 "/></g></g></g><g fill="#ffffff" fill-opacity="1"><g transform="translate(235.948952, 194.890886)"><g><path d="M -0.300781 -4.140625 C -0.300781 -2.644531 -0.148438 6.539062 1.648438 6.539062 C 2.59375 6.539062 2.894531 6.339844 3.242188 5.289062 C 3.84375 3.445312 4.242188 1.347656 5.039062 -0.75 C 5.640625 -2.246094 7.535156 -6.988281 8.484375 -7.683594 C 8.484375 -6.289062 8.535156 -4.042969 8.734375 -2.945312 C 9.082031 -0.898438 9.832031 0 10.878906 0 C 13.226562 0 15.519531 -4.191406 16.519531 -5.988281 C 17.019531 -6.988281 17.667969 -7.535156 17.367188 -8.734375 C 17.167969 -8.785156 16.96875 -8.832031 16.816406 -8.832031 C 16.417969 -8.832031 16.121094 -8.484375 15.519531 -7.4375 C 15.121094 -6.636719 14.722656 -5.9375 14.273438 -5.191406 C 13.425781 -3.992188 12.375 -1.945312 10.878906 -1.597656 C 10.230469 -2.84375 10.230469 -3.992188 10.230469 -5.890625 C 10.230469 -6.785156 10.230469 -9.832031 9.132812 -9.832031 C 7.636719 -9.832031 7.1875 -8.785156 6.4375 -7.4375 C 4.292969 -3.542969 3.84375 -2.046875 2.496094 1.945312 L 2.097656 2.894531 L 1.945312 -2.695312 C 1.945312 -7.683594 2.445312 -13.574219 3.195312 -18.164062 C 3.445312 -19.863281 4.191406 -22.207031 3.84375 -23.753906 C 3.492188 -23.804688 3.242188 -23.855469 3.042969 -23.855469 C 2.546875 -23.855469 2.394531 -23.503906 1.945312 -22.207031 C 1.148438 -19.015625 0.347656 -15.769531 0.199219 -12.425781 C 0.148438 -11.679688 0.0507812 -10.53125 0 -9.78125 Z M -0.300781 -4.140625 "/></g></g></g><g fill="#ffffff" fill-opacity="1"><g transform="translate(251.167956, 194.890886)"><g><path d="M -14.023438 -22.257812 C -14.023438 -21.558594 -13.523438 -21.410156 -12.976562 -21.410156 C -12.675781 -21.410156 -12.375 -21.460938 -12.125 -21.507812 C -11.679688 -22.457031 -12.175781 -22.257812 -10.929688 -22.757812 C -10.332031 -23.007812 -9.882812 -23.355469 -9.28125 -23.605469 C -6.1875 -24.804688 -3.34375 -25.652344 -0.0507812 -26.449219 C 0.449219 -26.597656 1.597656 -26.800781 1.894531 -26.898438 L 1.445312 -22.257812 C 1.398438 -21.609375 1.347656 -20.511719 1.246094 -19.863281 C 1 -18.414062 0.949219 -11.679688 0.949219 -9.78125 L 0.796875 -7.4375 C 0.796875 -3.792969 0.648438 2.144531 0.949219 5.738281 C 0.949219 6.9375 1 8.734375 2.296875 8.734375 C 3.59375 8.734375 2.84375 5.289062 2.84375 4.140625 C 2.746094 1.945312 2.792969 -8.035156 2.945312 -9.53125 C 3.042969 -10.578125 2.945312 -12.824219 2.945312 -14.273438 C 2.945312 -14.972656 3.09375 -14.972656 3.09375 -15.621094 C 3.09375 -16.121094 3.042969 -16.71875 3.09375 -17.167969 L 4.09375 -27.398438 C 5.289062 -27.648438 12.875 -29.09375 15.621094 -29.09375 C 15.96875 -29.09375 16.21875 -29.09375 16.417969 -29.042969 C 17.019531 -28.894531 16.867188 -29.09375 17.019531 -28.59375 C 18.914062 -28.59375 18.316406 -30.589844 15.96875 -30.589844 C 12.925781 -30.589844 9.980469 -30.09375 7.085938 -29.542969 C 6.339844 -29.445312 5.289062 -29.144531 4.492188 -29.144531 C 4.492188 -30.742188 5.488281 -29.445312 5.488281 -30.742188 C 5.488281 -31.039062 5.441406 -31.242188 5.441406 -31.390625 C 5.390625 -31.890625 5.488281 -31.488281 5.488281 -32.089844 C 5.488281 -32.886719 5.089844 -33.535156 4.542969 -33.535156 C 3.894531 -33.535156 3.09375 -32.636719 2.59375 -29.941406 C 2.246094 -28.246094 2.394531 -28.695312 0.300781 -28.144531 C -2.546875 -27.347656 -14.023438 -24.503906 -14.023438 -22.257812 Z M -14.023438 -22.257812 "/></g></g></g><g fill="#ffffff" fill-opacity="1"><g transform="translate(256.956172, 194.890886)"><g><path d="M 0 -5.039062 C 0 -3.242188 0.148438 -2.394531 1.996094 -2.394531 C 3.445312 -2.394531 4.992188 -7.085938 5.9375 -7.734375 C 5.9375 -5.589844 7.535156 -2.996094 10.03125 -2.996094 C 10.878906 -2.996094 11.828125 -3.292969 12.824219 -3.992188 L 14.324219 -5.191406 C 16.867188 -7.636719 16.570312 -8.882812 15.820312 -8.882812 C 15.519531 -8.882812 15.171875 -8.734375 14.921875 -8.382812 C 14.222656 -7.636719 14.074219 -7.1875 13.125 -6.339844 C 12.027344 -5.238281 10.980469 -4.640625 10.03125 -4.640625 C 8.984375 -4.640625 8.085938 -5.441406 7.683594 -7.234375 C 7.234375 -9.132812 8.085938 -11.378906 6.339844 -11.378906 C 5.6875 -11.378906 3.644531 -7.136719 2.644531 -5.589844 L 2.246094 -4.992188 C 1.996094 -4.691406 2.144531 -4.890625 1.996094 -4.742188 C 1.996094 -6.386719 2.695312 -8.285156 3.34375 -9.332031 C 4.789062 -11.828125 5.789062 -12.527344 6.539062 -12.527344 C 7.484375 -12.527344 8.085938 -11.378906 8.785156 -11.378906 C 10.082031 -11.378906 8.785156 -14.222656 6.4375 -14.222656 C 2.945312 -14.222656 0 -7.886719 0 -5.039062 Z M 0 -5.039062 "/></g></g></g></svg>